# xmcd
#
# Track frame offsets:
#	150
#	10141
#	20183
#	29274
#	39287
#	51143
#	59716
#	72153
#	78094
#	88926
#	100238
#
# Disc length: 1465 seconds
#
# Revision: 1
# Processed by: cddbd v1.5.2PL0 Copyright (c) Steve Scherf et al.
# Submitted via: audiograbber 1.80
#
DISCID=8a05b70b
DTITLE=Johnny Cash - The Man,The World,His Music (Disk1)
DYEAR=1900
DGENRE=
TTITLE0=Born To Lose
TTITLE1=Story Of A Broken Heart
TTITLE2=Two-Timin' Woman
TTITLE3=Goodbye Litte Darling
TTITLE4=Port Of Lonely Hearts
TTITLE5=I Forgot To Remember To Forget
TTITLE6=Goodnight Irene
TTITLE7=My Treasure
TTITLE8=I Heard That Lonesome Whistle
TTITLE9=Mean Eyed Cat
TTITLE10=New Mexico
EXTD=
EXTT0=
EXTT1=
EXTT2=
EXTT3=
EXTT4=
EXTT5=
EXTT6=
EXTT7=
EXTT8=
EXTT9=
EXTT10=
PLAYORDER=
